<?xml version="1.0" encoding="UTF-8" standalone="no"?>
<svg
   xmlns:dc="http://purl.org/dc/elements/1.1/"
   xmlns:cc="http://creativecommons.org/ns#"
   xmlns:rdf="http://www.w3.org/1999/02/22-rdf-syntax-ns#"
   xmlns:svg="http://www.w3.org/2000/svg"
   xmlns="http://www.w3.org/2000/svg"
   xmlns:sodipodi="http://sodipodi.sourceforge.net/DTD/sodipodi-0.dtd"
   xmlns:inkscape="http://www.inkscape.org/namespaces/inkscape"
   aria-hidden="true"
   focusable="false"
   data-prefix="fas"
   data-icon="code"
   class="svg-inline--fa fa-code fa-w-20"
   role="img"
   viewBox="0 0 700 700"
   version="1.1"
   id="svg4"
   sodipodi:docname="html.svg"
   width="700"
   height="700"
   inkscape:version="0.92.3 (2405546, 2018-03-11)">
  <metadata
     id="metadata10">
    <rdf:RDF>
      <cc:Work
         rdf:about="">
        <dc:format>image/svg+xml</dc:format>
        <dc:type
           rdf:resource="http://purl.org/dc/dcmitype/StillImage" />
        <dc:title></dc:title>
      </cc:Work>
    </rdf:RDF>
  </metadata>
  <defs
     id="defs8" />
  <sodipodi:namedview
     pagecolor="#ffffff"
     bordercolor="#666666"
     borderopacity="1"
     objecttolerance="10"
     gridtolerance="10"
     guidetolerance="10"
     inkscape:pageopacity="0"
     inkscape:pageshadow="2"
     inkscape:window-width="1920"
     inkscape:window-height="999"
     id="namedview6"
     showgrid="false"
     inkscape:pagecheckerboard="true"
     inkscape:zoom="0.91668384"
     inkscape:cx="199.46763"
     inkscape:cy="427.33756"
     inkscape:window-x="0"
     inkscape:window-y="0"
     inkscape:window-maximized="1"
     inkscape:current-layer="svg4" />
  <path
     d="m 308.9,605.48208 -61,-17.7 c -6.4,-1.8 -10,-8.5 -8.2,-14.9 l 136.5,-470.2 c 1.8,-6.399999 8.5,-9.999999 14.9,-8.199999 l 61,17.699999 c 6.4,1.8 10,8.5 8.2,14.9 l -136.5,470.2 c -1.9,6.4 -8.5,10.1 -14.9,8.2 z m -114,-112.2 43.5,-46.4 c 4.6,-4.9 4.3,-12.7 -0.8,-17.2 l -90.6,-79.7 90.6,-79.7 c 5.1,-4.5 5.5,-12.3 0.8,-17.2 l -43.5,-46.4 c -4.5,-4.8 -12.1,-5.1 -17,-0.5 l -144.1,135 c -5.1,4.7 -5.1,12.8 0,17.5 l 144.1,135.1 c 4.9,4.6 12.5,4.4 17,-0.5 z m 327.2,0.6 144.1,-135.1 c 5.1,-4.7 5.1,-12.8 0,-17.5 l -144.1,-135.2 c -4.8,-4.5 -12.4,-4.3 -17,0.5 l -43.5,46.4 c -4.6,4.9 -4.3,12.7 0.8,17.2 l 90.6,79.8 -90.6,79.7 c -5.1,4.5 -5.5,12.3 -0.8,17.2 l 43.5,46.4 c 4.5,4.9 12.1,5.1 17,0.6 z"
     id="path2"
     inkscape:connector-curvature="0"
     style="fill:#ffffff" />
</svg>
